<svg xmlns="http://www.w3.org/2000/svg" style="display: none;">
    <symbol id="icon-arrow-down" >
        <path opacity="0.8" fill-rule="evenodd" clip-rule="evenodd" d="M30.2944 14.1002C32.2106 14.6899 34.2598 14.6899 36.1761 14.1003L64.081 5.51412C65.4006 5.10807 66.1413 3.70912 65.7352 2.38946C65.3292 1.0698 63.9302 0.329179 62.6106 0.735226L36.1761 8.86891C34.2598 9.45853 32.2106 9.45853 30.2944 8.86891L3.85988 0.735222C2.54022 0.329174 1.14126 1.0698 0.735216 2.38945C0.329168 3.70911 1.06979 5.10807 2.38944 5.51412L30.2944 14.1002Z" fill="currentColor"></path>
    </symbol>    
        <symbol id="icon-cloud">
        <path fill="#FFFFFF" d="M715.394,228h-16.595c0.79-5.219,1.201-10.562,1.201-16c0-58.542-47.458-106-106-106
        c-8.198,0-16.178,0.932-23.841,2.693C548.279,45.434,488.199,0,417.5,0c-84.827,0-154.374,65.401-160.98,148.529
        C245.15,143.684,232.639,141,219.5,141c-49.667,0-90.381,38.315-94.204,87H46.607C20.866,228,0,251.058,0,279.5
        S20.866,331,46.607,331h668.787C741.133,331,762,307.942,762,279.5S741.133,228,715.394,228z"></path>
    </symbol>    
</svg>